<?xml version="1.0" encoding="UTF-8"?>
<svg id="Layer_1" xmlns="http://www.w3.org/2000/svg" version="1.1" viewBox="0 0 400 400">
  <!-- Generator: Adobe Illustrator 30.1.0, SVG Export Plug-In . SVG Version: 2.1.1 Build 136)  -->
  <defs>
    <style>
      .st0 {
        fill: #eaeaea;
      }

      .st1 {
        fill: #14141f;
      }
    </style>
  </defs>
  <rect class="st0" x="-4.4" y="-4.4" width="408.8" height="408.8"/>
  <path class="st1" d="M101.6,113.9c11,14.9,49.7,66.5,59.7,78.8.3.3.5.6.7.9h0c.2.2.4.4.7.3.5,0,1.1-.4,1.3-.8l.6-.9c13.1-19,58.5-79.1,93.5-55.5,15.8,10.7,24.4,33.6,27.2,42.3,1.4-2.9,4.4-10.4,5.2-12.8,0-.1,0-.2-.1-.3l-6.8-5.6,5.2-10.6c0-.2,0-.4,0-.5-.6-.9-3.7-1.2-6.2-1.4-2.3-.2-4.5-.4-5.7-1l-.4-.2,3.4-16.7c0-.9-.1-1-.2-1.1-.7-.4-4.7.4-7.6.9-3.8.7-7.8,1.4-9.5,1h-.6c0-.1,2.3-19.7,2.3-19.7,0-.4-.2-.5-.3-.5-1.1-.5-4.8,1.8-7.5,3.5-2.8,1.8-5.5,3.5-7.2,3.7h-.6c0,0,0-.6,0-.6-.2-1.9.7-6.5,1.7-11.4.9-4.5,2.2-11.3,1.6-12.2,0,0-.3-.2-1.2.3l-16.5,13.9-8-25.4c-.1-.5-.4-.7-.7-.7-.9.4-3.6,6.7-5.7,11.3-2.5,5.7-4.8,11.1-6.5,12.7l-.8.7-10-34.2c-.1-.4-.4-.8-.7-.8h0c-.2,0-.5.3-.6.8l-7.6,34.6-37.3-43.4c-.5-.8-.7-.7-.9-.7-.3,0-.5.4-.6.9l4.6,64.3-56.6-16.1c-.1,0-.3,0-.4,0-.5,0-.8.3-1,.6-.3.4-.4,1,0,1.5Z"/>
  <path class="st1" d="M289.2,239.8l3.4-35.4c.2-2-.4-3.8-1.7-5.2-1.4-1.5-3.4-2.4-5.8-2.5h-.5s-.1-.5-.1-.5c-3.8-16.9-17.6-45.3-35.2-52.5-7-2.9-14-2.2-20.9,1.9,18.2,10,29.8,23.8,34.5,40.9,3,10.4,4.3,21.4,4,34.6-.9,37.6-20,62.1-37.5,72.5-18.7,11.1-40.9,8.9-57.9-5.7l-1.1-.9,12.7-1.6c2.5-.2,4.7-1.6,6.2-3.7,1.4-2,1.8-4.4,1.2-6.7-.2-.6-1.7-.9-3.1-.9l-26.8,2.2-.2-.3c-6.8-8.5-12.4-20.9-15.6-35l-.2-.7h.7c0,0,71.5-6.3,71.5-6.3,3.3-.3,5.7-3.1,5.4-6.4l-.5-5.8h0s0-1,0-1c-.2-1.9-1-3.7-2.5-4.9-1.5-1.3-3.3-1.8-5.2-1.7l-71.7,6.3v-6.3c.1-9.6,1.8-19,5.2-29.6l-8.9-13.3c-5.6,13.6-8.6,27.9-9.1,43.7,0,0,0,2.4,0,5.9h0s0,.7,0,.7h-.7s-8.3.7-8.3.7c-3.3.3-5.7,3.1-5.4,6.4l.6,8c.1,1.6.9,3,2.1,4.1,1.2,1,2.7,1.5,4.3,1.4l9.4-.8v.6c5.5,27.5,19.8,51.2,39.4,65,9.6,6.8,19,10.8,28.6,12.3,13,2,26.6-.8,39.2-7.9,21.6-12.2,37.9-35.5,44.6-63.8v-.4c0,0,.4-.1.4-.1,3.7.9,5.1-3.5,5.3-7.1Z"/>
  <path class="st1" d="M172.5,256.2c-.2-.4-.7-.7-1.2-.6l-7.4,2.2c-.2,0-.3,0-.4,0l-8.2-1.4.8,1.7c.1.3.4.5.7.7l5.9,3c.5.3,1.2.4,1.7.2l8.5-3.4c.3-.1.5-.3.6-.5,0-.1,0-.3,0-.6l-1-1.5Z"/>
</svg>