<?xml version="1.0" encoding="UTF-8"?>
<svg id="Capa_1" xmlns="http://www.w3.org/2000/svg" version="1.1" viewBox="0 0 1080 1080">
  <!-- Generator: Adobe Illustrator 30.1.0, SVG Export Plug-In . SVG Version: 2.1.1 Build 136)  -->
  <defs>
    <style>
      .st0 {
        fill: #010101;
      }

      .st1 {
        fill: #020202;
      }

      .st2 {
        fill: #d900d9;
      }

      .st3 {
        fill: #1fbfba;
      }
    </style>
  </defs>
  <g>
    <g>
      <path class="st3" d="M223.6,802.1c6.2,0,12.2,1.3,18.2,3.8,6,2.5,10.5,6.1,13.7,10.9l10.2-49.9h22.3l-29.7,150.2h-21.3l2.1-14.3c-4,5-8.5,9.1-13.3,12.1-4.8,3.1-10.4,4.6-16.5,4.6-8.8,0-16.4-2.1-22.7-6.2-6.3-4.1-11.1-9.7-14.5-16.8-3.3-7.1-5-14.9-5-23.6s1.3-19.4,3.9-27.9c2.6-8.6,6.3-16,11.1-22.4,4.8-6.4,10.8-11.4,17.8-15,7-3.6,14.9-5.4,23.7-5.4ZM213.4,899.3c6.3,0,12-2,17.1-6,5.1-4,9.5-9.3,13.3-15.8l6.8-34.4c-1.4-6.2-4.4-11.3-9.1-15.1-4.7-3.8-10.1-5.7-16.4-5.7s-12.8,2.1-18.1,6.3c-5.3,4.2-9.4,10-12.4,17.2-3,7.3-4.4,15.5-4.4,24.8s.9,10.7,2.8,15c1.9,4.3,4.6,7.6,8,10.1,3.5,2.4,7.6,3.7,12.4,3.7Z"/>
      <path class="st3" d="M322.2,919.5c-9.4,0-17.7-2-24.6-6-7-4-12.4-9.6-16.2-16.9-3.8-7.3-5.8-15.9-5.8-25.8s2.5-26,7.5-36.3c5-10.3,11.9-18.3,20.7-23.9,8.8-5.6,19-8.5,30.6-8.5s17.8,2,24.7,6c6.9,4,12.3,9.6,16.1,16.8,3.8,7.2,5.7,15.8,5.7,25.7s-2.5,26-7.4,36.3c-4.9,10.3-11.8,18.3-20.6,24.1-8.8,5.7-19,8.6-30.6,8.6ZM322.9,899.5c7.1,0,13.2-2,18.3-5.9,5.2-3.9,9.2-9.5,12.1-16.7,2.9-7.2,4.3-15.6,4.3-25.1s-2.2-16.3-6.6-21.7c-4.4-5.4-10.2-8.1-17.4-8.1s-13.2,2-18.4,5.9c-5.2,3.9-9.3,9.5-12.3,16.6-3,7.1-4.4,15.5-4.4,25.2s1,11,3,15.4c2,4.4,4.9,7.9,8.6,10.5,3.7,2.6,8,3.9,12.7,3.9Z"/>
      <path class="st3" d="M449.7,861.4l23.8,55.6h-23.4l-7.6-17.1-9.6-22.8-17.6,22.6-14.7,17.3h-25.3l46.8-58.7-23.4-53.8h23.4l7.2,15.3,9.6,23,17.8-22.6,13.4-15.7h25.3l-45.7,56.9Z"/>
      <path class="st3" d="M557.3,861.4l23.8,55.6h-23.4l-7.6-17.1-9.6-22.8-17.6,22.6-14.7,17.3h-25.3l46.8-58.7-23.4-53.8h23.4l7.2,15.3,9.6,23,17.8-22.6,13.4-15.7h25.3l-45.7,56.9Z"/>
      <path class="st3" d="M592.8,917.1l22.1-112.5h21.5l-3.6,23.8-17.6,88.7h-22.5ZM665.6,917.1l13.8-70.1c1.5-7.3.8-13.2-2-17.6-2.8-4.4-7.3-6.6-13.3-6.6s-13.6,2.6-20,7.9c-6.4,5.3-12.7,13.7-18.9,25.1l1.3-24.1c6-9.9,12.7-17.3,20-22.2,7.3-4.9,15.4-7.3,24.2-7.3s14,1.8,19.3,5.4c5.3,3.6,9.1,8.7,11.4,15.2,2.3,6.5,2.6,14.1.9,22.8l-14.2,71.5h-22.5Z"/>
      <path class="st3" d="M753.8,919.5c-9.3,0-17.5-2-24.6-6-7.1-4-12.7-9.7-16.7-17-4-7.3-6-16-6-25.9s1.4-18.6,4.1-26.9c2.7-8.3,6.6-15.6,11.6-21.8,5-6.2,11.2-11.1,18.5-14.6,7.3-3.5,15.6-5.2,24.9-5.2s19.7,2.4,26.9,7.2c7.2,4.8,12.3,11.6,15.3,20.4,3,8.8,3.4,19.1,1.4,31.1h-84.4l3.6-17.5h59.1c.1-6.5-1.8-11.8-5.7-15.7-3.9-3.9-9.6-5.9-17.2-5.9s-15.2,2.3-20.4,6.9c-5.2,4.6-8.9,10.6-11.2,17.8-2.3,7.3-3.5,14.9-3.5,22.9s1,11.4,3.1,15.9c2.1,4.5,5.1,8,9,10.5,3.9,2.5,8.4,3.8,13.6,3.8,8.4,0,15.1-2,20-5.9,4.9-3.9,8.2-9,9.8-15.1h22.7c-2.3,8.3-5.7,15.5-10.3,21.7-4.6,6.2-10.5,10.9-17.7,14.3-7.2,3.3-15.8,5-25.9,5Z"/>
      <path class="st3" d="M827.1,824.3l4-19.8h75.9l-3.8,19.8h-76.1ZM864.6,917.1c-6.8,0-12.3-1.5-16.6-4.5-4.3-3-7.2-7.2-8.7-12.7-1.5-5.5-1.6-11.9-.2-19.3l19.1-96.4,25.1-12.2-21.5,108.6c-.6,3.4-.8,6.4-.5,9,.3,2.6,1.4,4.5,3.4,5.8,2,1.3,4.9,1.9,9,1.9h32.3l-4,19.8h-37.4Z"/>
    </g>
    <g>
      <path class="st2" d="M229.5,802.1c6.2,0,12.2,1.3,18.2,3.8,6,2.5,10.5,6.1,13.7,10.9l10.2-49.9h22.3l-29.7,150.2h-21.3l2.1-14.3c-4,5-8.5,9.1-13.3,12.1-4.8,3.1-10.4,4.6-16.5,4.6-8.8,0-16.4-2.1-22.7-6.2-6.3-4.1-11.1-9.7-14.5-16.8-3.3-7.1-5-14.9-5-23.6s1.3-19.4,3.9-27.9c2.6-8.6,6.3-16,11.1-22.4,4.8-6.4,10.8-11.4,17.8-15,7-3.6,14.9-5.4,23.7-5.4ZM219.3,899.3c6.3,0,12-2,17.1-6,5.1-4,9.5-9.3,13.3-15.8l6.8-34.4c-1.4-6.2-4.4-11.3-9.1-15.1-4.7-3.8-10.1-5.7-16.4-5.7s-12.8,2.1-18.1,6.3c-5.3,4.2-9.4,10-12.4,17.2-3,7.3-4.4,15.5-4.4,24.8s.9,10.7,2.8,15c1.9,4.3,4.6,7.6,8,10.1,3.5,2.4,7.6,3.7,12.4,3.7Z"/>
      <path class="st2" d="M328.1,919.5c-9.4,0-17.7-2-24.6-6-7-4-12.4-9.6-16.2-16.9-3.8-7.3-5.8-15.9-5.8-25.8s2.5-26,7.5-36.3c5-10.3,11.9-18.3,20.7-23.9,8.8-5.6,19-8.5,30.6-8.5s17.8,2,24.7,6c6.9,4,12.3,9.6,16.1,16.8,3.8,7.2,5.7,15.8,5.7,25.7s-2.5,26-7.4,36.3c-4.9,10.3-11.8,18.3-20.6,24.1-8.8,5.7-19,8.6-30.6,8.6ZM328.9,899.5c7.1,0,13.2-2,18.3-5.9,5.2-3.9,9.2-9.5,12.1-16.7,2.9-7.2,4.3-15.6,4.3-25.1s-2.2-16.3-6.6-21.7c-4.4-5.4-10.2-8.1-17.4-8.1s-13.2,2-18.4,5.9c-5.2,3.9-9.3,9.5-12.3,16.6-3,7.1-4.4,15.5-4.4,25.2s1,11,3,15.4c2,4.4,4.9,7.9,8.6,10.5,3.7,2.6,8,3.9,12.7,3.9Z"/>
      <path class="st2" d="M455.6,861.4l23.8,55.6h-23.4l-7.6-17.1-9.6-22.8-17.6,22.6-14.7,17.3h-25.3l46.8-58.7-23.4-53.8h23.4l7.2,15.3,9.6,23,17.8-22.6,13.4-15.7h25.3l-45.7,56.9Z"/>
      <path class="st2" d="M563.3,861.4l23.8,55.6h-23.4l-7.6-17.1-9.6-22.8-17.6,22.6-14.7,17.3h-25.3l46.8-58.7-23.4-53.8h23.4l7.2,15.3,9.6,23,17.8-22.6,13.4-15.7h25.3l-45.7,56.9Z"/>
      <path class="st2" d="M598.8,917.1l22.1-112.5h21.5l-3.6,23.8-17.6,88.7h-22.5ZM671.5,917.1l13.8-70.1c1.5-7.3.8-13.2-2-17.6-2.8-4.4-7.3-6.6-13.3-6.6s-13.6,2.6-20,7.9c-6.4,5.3-12.7,13.7-18.9,25.1l1.3-24.1c6-9.9,12.7-17.3,20-22.2,7.3-4.9,15.4-7.3,24.2-7.3s14,1.8,19.3,5.4c5.3,3.6,9.1,8.7,11.4,15.2,2.3,6.5,2.6,14.1.9,22.8l-14.2,71.5h-22.5Z"/>
      <path class="st2" d="M759.7,919.5c-9.3,0-17.5-2-24.6-6-7.1-4-12.7-9.7-16.7-17-4-7.3-6-16-6-25.9s1.4-18.6,4.1-26.9c2.7-8.3,6.6-15.6,11.6-21.8,5-6.2,11.2-11.1,18.5-14.6,7.3-3.5,15.6-5.2,24.9-5.2s19.7,2.4,26.9,7.2c7.2,4.8,12.3,11.6,15.3,20.4,3,8.8,3.4,19.1,1.4,31.1h-84.4l3.6-17.5h59.1c.1-6.5-1.8-11.8-5.7-15.7-3.9-3.9-9.6-5.9-17.2-5.9s-15.2,2.3-20.4,6.9c-5.2,4.6-8.9,10.6-11.2,17.8-2.3,7.3-3.5,14.9-3.5,22.9s1,11.4,3.1,15.9c2.1,4.5,5.1,8,9,10.5,3.9,2.5,8.4,3.8,13.6,3.8,8.4,0,15.1-2,20-5.9,4.9-3.9,8.2-9,9.8-15.1h22.7c-2.3,8.3-5.7,15.5-10.3,21.7-4.6,6.2-10.5,10.9-17.7,14.3-7.2,3.3-15.8,5-25.9,5Z"/>
      <path class="st2" d="M833,824.3l4-19.8h75.9l-3.8,19.8h-76.1ZM870.6,917.1c-6.8,0-12.3-1.5-16.6-4.5-4.3-3-7.2-7.2-8.7-12.7-1.5-5.5-1.6-11.9-.2-19.3l19.1-96.4,25.1-12.2-21.5,108.6c-.6,3.4-.8,6.4-.5,9,.3,2.6,1.4,4.5,3.4,5.8,2,1.3,4.9,1.9,9,1.9h32.3l-4,19.8h-37.4Z"/>
    </g>
    <g>
      <path d="M226.6,802.1c6.2,0,12.2,1.3,18.2,3.8,6,2.5,10.5,6.1,13.7,10.9l10.2-49.9h22.3l-29.7,150.2h-21.3l2.1-14.3c-4,5-8.5,9.1-13.3,12.1-4.8,3.1-10.4,4.6-16.5,4.6-8.8,0-16.4-2.1-22.7-6.2-6.3-4.1-11.1-9.7-14.5-16.8-3.3-7.1-5-14.9-5-23.6s1.3-19.4,3.9-27.9c2.6-8.6,6.3-16,11.1-22.4,4.8-6.4,10.8-11.4,17.8-15,7-3.6,14.9-5.4,23.7-5.4ZM216.4,899.3c6.3,0,12-2,17.1-6,5.1-4,9.5-9.3,13.3-15.8l6.8-34.4c-1.4-6.2-4.4-11.3-9.1-15.1-4.7-3.8-10.1-5.7-16.4-5.7s-12.8,2.1-18.1,6.3c-5.3,4.2-9.4,10-12.4,17.2-3,7.3-4.4,15.5-4.4,24.8s.9,10.7,2.8,15c1.9,4.3,4.6,7.6,8,10.1,3.5,2.4,7.6,3.7,12.4,3.7Z"/>
      <path d="M325.2,919.5c-9.4,0-17.7-2-24.6-6-7-4-12.4-9.6-16.2-16.9-3.8-7.3-5.8-15.9-5.8-25.8s2.5-26,7.5-36.3c5-10.3,11.9-18.3,20.7-23.9,8.8-5.6,19-8.5,30.6-8.5s17.8,2,24.7,6c6.9,4,12.3,9.6,16.1,16.8,3.8,7.2,5.7,15.8,5.7,25.7s-2.5,26-7.4,36.3c-4.9,10.3-11.8,18.3-20.6,24.1-8.8,5.7-19,8.6-30.6,8.6ZM325.9,899.5c7.1,0,13.2-2,18.3-5.9,5.2-3.9,9.2-9.5,12.1-16.7,2.9-7.2,4.3-15.6,4.3-25.1s-2.2-16.3-6.6-21.7c-4.4-5.4-10.2-8.1-17.4-8.1s-13.2,2-18.4,5.9c-5.2,3.9-9.3,9.5-12.3,16.6-3,7.1-4.4,15.5-4.4,25.2s1,11,3,15.4c2,4.4,4.9,7.9,8.6,10.5,3.7,2.6,8,3.9,12.7,3.9Z"/>
      <path d="M452.7,861.4l23.8,55.6h-23.4l-7.6-17.1-9.6-22.8-17.6,22.6-14.7,17.3h-25.3l46.8-58.7-23.4-53.8h23.4l7.2,15.3,9.6,23,17.8-22.6,13.4-15.7h25.3l-45.7,56.9Z"/>
      <path d="M560.3,861.4l23.8,55.6h-23.4l-7.6-17.1-9.6-22.8-17.6,22.6-14.7,17.3h-25.3l46.8-58.7-23.4-53.8h23.4l7.2,15.3,9.6,23,17.8-22.6,13.4-15.7h25.3l-45.7,56.9Z"/>
      <path d="M595.8,917.1l22.1-112.5h21.5l-3.6,23.8-17.6,88.7h-22.5ZM668.6,917.1l13.8-70.1c1.5-7.3.8-13.2-2-17.6-2.8-4.4-7.3-6.6-13.3-6.6s-13.6,2.6-20,7.9c-6.4,5.3-12.7,13.7-18.9,25.1l1.3-24.1c6-9.9,12.7-17.3,20-22.2,7.3-4.9,15.4-7.3,24.2-7.3s14,1.8,19.3,5.4c5.3,3.6,9.1,8.7,11.4,15.2,2.3,6.5,2.6,14.1.9,22.8l-14.2,71.5h-22.5Z"/>
      <path d="M756.8,919.5c-9.3,0-17.5-2-24.6-6-7.1-4-12.7-9.7-16.7-17-4-7.3-6-16-6-25.9s1.4-18.6,4.1-26.9c2.7-8.3,6.6-15.6,11.6-21.8,5-6.2,11.2-11.1,18.5-14.6,7.3-3.5,15.6-5.2,24.9-5.2s19.7,2.4,26.9,7.2c7.2,4.8,12.3,11.6,15.3,20.4,3,8.8,3.4,19.1,1.4,31.1h-84.4l3.6-17.5h59.1c.1-6.5-1.8-11.8-5.7-15.7-3.9-3.9-9.6-5.9-17.2-5.9s-15.2,2.3-20.4,6.9c-5.2,4.6-8.9,10.6-11.2,17.8-2.3,7.3-3.5,14.9-3.5,22.9s1,11.4,3.1,15.9c2.1,4.5,5.1,8,9,10.5,3.9,2.5,8.4,3.8,13.6,3.8,8.4,0,15.1-2,20-5.9,4.9-3.9,8.2-9,9.8-15.1h22.7c-2.3,8.3-5.7,15.5-10.3,21.7-4.6,6.2-10.5,10.9-17.7,14.3-7.2,3.3-15.8,5-25.9,5Z"/>
      <path d="M830.1,824.3l4-19.8h75.9l-3.8,19.8h-76.1ZM867.6,917.1c-6.8,0-12.3-1.5-16.6-4.5-4.3-3-7.2-7.2-8.7-12.7-1.5-5.5-1.6-11.9-.2-19.3l19.1-96.4,25.1-12.2-21.5,108.6c-.6,3.4-.8,6.4-.5,9,.3,2.6,1.4,4.5,3.4,5.8,2,1.3,4.9,1.9,9,1.9h32.3l-4,19.8h-37.4Z"/>
    </g>
  </g>
  <g>
    <path class="st3" d="M432.3,452.6c2.1,2.6,5.6.6,6.7-1.1.4-.6.9-1.3,1.3-2,39.2-56.9,132.8-171.6,205.4-122.6,29.8,20.1,50.4,62.5,60.7,96.1.4,1.2,9-28,11.2-34.8.3-.8,0-1.7-.8-2.2l-12.2-8.2,7-22.7c2.4-7.7-16.6-4.8-23.3-8.2l1.7-30.1c0-1.6,0-3.2-1-3.8-3.6-2.4-25.5-.2-32.8-1.9l-3.6-35.9c-1.1-10.7-17.4,6.1-26.3,7.1-.9-9.3,6.8-38.7,3.1-41.9-1.1-1-2.6-.6-4.3.4l-31.4,18.4-17.1-54.4c-.5-1.6-1.5-2.5-2.8-2.6-4.9-.3-20.8,46.8-27.9,53.6l-21.4-73.6c-.5-1.6-1.6-2.7-2.9-2.7-1.3,0-2.3,1.2-2.7,2.8l-16.2,74-80.7-94c-1-1.7-1.9-2.3-3.4-1.9-1.2.3-2.1,1.3-2.3,3.2l10.1,140.7-123.5-35.1c-3.9-1.1-7,3.4-4.6,6.7,25.4,34.5,110.7,148,132.4,174.6.6.7,1.1,1.3,1.6,1.9Z"/>
    <path class="st3" d="M706.3,457.1c-11.4-50.8-64.2-153.2-128.4-111.8,38.1,20.4,66.7,49.9,77.8,91,7.2,25,9.4,49.9,8.7,76.2-1.5,61.4-28.3,127.4-82.4,159.5-41.8,24.8-90.4,18.5-126.7-12.5l24.9-3.1c11.8-1.1,20.7-13,17.6-24.7-.7-2.8-5.9-3.1-8.2-2.9l-58.6,4.7c-16.8-21-28.1-49.8-34.4-76.9h.2s158.3-13.9,158.3-13.9c8-.6,14-7.7,13.4-15.7l-.7-8.2-.2-3h0c0-.5,0-.9-.2-1.3l-.2-2.5c-.8-9.6-9.1-16.7-18.7-16l-157.3,13.8v-12.4c.4-23.1,4.8-44.4,11.7-65.8l-21.5-32.3c-13.8,32.5-20.3,65.5-21.4,99.7,0,0-.2,5.2,0,13.2h-.2s.2,0,.2,0c0,0,0,0,0,.1l-18.5,1.5c-8,.6-14,7.7-13.4,15.7l.7,9,.7,8.8c.6,8,7.7,14,15.7,13.4l19.7-1.6c11.1,56.4,40.3,111.4,87.6,144.9,19.3,13.7,40.4,23.9,63.9,27.4,30.7,4.6,61-2.6,87.8-17.7,51.9-29.3,85.8-84.5,99.5-142.4,8.3-2.5,13.6-8.2,14.3-17l6.1-78.5c.8-10.6-7-18.3-17.9-18.7Z"/>
    <path class="st2" d="M439.6,452.6c2.1,2.6,5.6.6,6.7-1.1.4-.6.9-1.3,1.3-2,39.2-56.9,132.8-171.6,205.4-122.6,29.8,20.1,50.4,62.5,60.7,96.1.4,1.2,9-28,11.2-34.8.3-.8,0-1.7-.8-2.2l-12.2-8.2,7-22.7c2.4-7.7-16.6-4.8-23.3-8.2l1.7-30.1c0-1.6,0-3.2-1-3.8-3.6-2.4-25.5-.2-32.8-1.9l-3.6-35.9c-1.1-10.7-17.4,6.1-26.3,7.1-.9-9.3,6.8-38.7,3.1-41.9-1.1-1-2.6-.6-4.3.4l-31.4,18.4-17.1-54.4c-.5-1.6-1.5-2.5-2.8-2.6-4.9-.3-20.8,46.8-27.9,53.6l-21.4-73.6c-.5-1.6-1.6-2.7-2.9-2.7-1.3,0-2.3,1.2-2.7,2.8l-16.2,74-80.7-94c-1-1.7-1.9-2.3-3.4-1.9-1.2.3-2.1,1.3-2.3,3.2l10.1,140.7-123.5-35.1c-3.9-1.1-7,3.4-4.6,6.7,25.4,34.5,110.7,148,132.4,174.6.6.7,1.1,1.3,1.6,1.9Z"/>
    <path class="st2" d="M713.7,457.1c-11.4-50.8-64.2-153.2-128.4-111.8,38.1,20.4,66.7,49.9,77.8,91,7.2,25,9.4,49.9,8.7,76.2-1.5,61.4-28.3,127.4-82.4,159.5-41.8,24.8-90.4,18.5-126.7-12.5l24.9-3.1c11.8-1.1,20.7-13,17.6-24.7-.7-2.8-5.9-3.1-8.2-2.9l-58.6,4.7c-16.8-21-28.1-49.8-34.4-76.9h.2s158.3-13.9,158.3-13.9c8-.6,14-7.7,13.4-15.7l-.7-8.2-.2-3h0c0-.5,0-.9-.2-1.3l-.2-2.5c-.8-9.6-9.1-16.7-18.7-16l-157.3,13.8v-12.4c.4-23.1,4.8-44.4,11.7-65.8l-21.5-32.3c-13.8,32.5-20.3,65.5-21.4,99.7,0,0-.2,5.2,0,13.2h-.2s.2,0,.2,0c0,0,0,0,0,.1l-18.5,1.5c-8,.6-14,7.7-13.4,15.7l.7,9,.7,8.8c.6,8,7.7,14,15.7,13.4l19.7-1.6c11.1,56.4,40.3,111.4,87.6,144.9,19.3,13.7,40.4,23.9,63.9,27.4,30.7,4.6,61-2.6,87.8-17.7,51.9-29.3,85.8-84.5,99.5-142.4,8.3-2.5,13.6-8.2,14.3-17l6.1-78.5c.8-10.6-7-18.3-17.9-18.7Z"/>
    <path class="st0" d="M435.7,452.6c2.1,2.6,5.6.6,6.7-1.1.4-.6.9-1.3,1.3-2,39.2-56.9,132.8-171.6,205.4-122.6,29.8,20.1,50.4,62.5,60.7,96.1.4,1.2,9-28,11.2-34.8.3-.8,0-1.7-.8-2.2l-12.2-8.2,7-22.7c2.4-7.7-16.6-4.8-23.3-8.2l1.7-30.1c0-1.6,0-3.2-1-3.8-3.6-2.4-25.5-.2-32.8-1.9l-3.6-35.9c-1.1-10.7-17.4,6.1-26.3,7.1-.9-9.3,6.8-38.7,3.1-41.9-1.1-1-2.6-.6-4.3.4l-31.4,18.4-17.1-54.4c-.5-1.6-1.5-2.5-2.8-2.6-4.9-.3-20.8,46.8-27.9,53.6l-21.4-73.6c-.5-1.6-1.6-2.7-2.9-2.7-1.3,0-2.3,1.2-2.7,2.8l-16.2,74-80.7-94c-1-1.7-1.9-2.3-3.4-1.9-1.2.3-2.1,1.3-2.3,3.2l10.1,140.7-123.5-35.1c-3.9-1.1-7,3.4-4.6,6.7,25.4,34.5,110.7,148,132.4,174.6.6.7,1.1,1.3,1.6,1.9Z"/>
    <path class="st1" d="M709.8,457.1c-11.4-50.8-64.2-153.2-128.4-111.8,38.1,20.4,66.7,49.9,77.8,91,7.2,25,9.4,49.9,8.7,76.2-1.5,61.4-28.3,127.4-82.4,159.5-41.8,24.8-90.4,18.5-126.7-12.5l24.9-3.1c11.8-1.1,20.7-13,17.6-24.7-.7-2.8-5.9-3.1-8.2-2.9l-58.6,4.7c-16.8-21-28.1-49.8-34.4-76.9h.2s158.3-13.9,158.3-13.9c8-.6,14-7.7,13.4-15.7l-.7-8.2-.2-3h0c0-.5,0-.9-.2-1.3l-.2-2.5c-.8-9.6-9.1-16.7-18.7-16l-157.3,13.8v-12.4c.4-23.1,4.8-44.4,11.7-65.8l-21.5-32.3c-13.8,32.5-20.3,65.5-21.4,99.7,0,0-.2,5.2,0,13.2h-.2s.2,0,.2,0c0,0,0,0,0,.1l-18.5,1.5c-8,.6-14,7.7-13.4,15.7l.7,9,.7,8.8c.6,8,7.7,14,15.7,13.4l19.7-1.6c11.1,56.4,40.3,111.4,87.6,144.9,19.3,13.7,40.4,23.9,63.9,27.4,30.7,4.6,61-2.6,87.8-17.7,51.9-29.3,85.8-84.5,99.5-142.4,8.3-2.5,13.6-8.2,14.3-17l6.1-78.5c.8-10.6-7-18.3-17.9-18.7Z"/>
    <path class="st3" d="M417,591.6l1.8,4.1c.4.9,1.1,1.7,2,2.2l13.2,6.7c1.5.8,3.3,1,4.9.5l19-7.5c1.9-.6,2.9-2.6,2.1-4.3l-2.2-3.4c-.6-1.4-2.3-2.2-4-2l-16.7,5c-.1,0-.3,0-.4,0l-18.3-3c-1.1-.1-1.9.8-1.5,1.7Z"/>
    <path class="st2" d="M422.2,591.6l1.8,4.1c.4.9,1.1,1.7,2,2.2l13.2,6.7c1.5.8,3.3,1,4.9.5l19-7.5c1.9-.6,2.9-2.6,2.1-4.3l-2.2-3.4c-.6-1.4-2.3-2.2-4-2l-16.7,5c-.1,0-.3,0-.4,0l-18.3-3c-1.1-.1-1.9.8-1.5,1.7Z"/>
    <path class="st1" d="M420.4,591.6l1.8,4.1c.4.9,1.1,1.7,2,2.2l13.2,6.7c1.5.8,3.3,1,4.9.5l19-7.5c1.9-.6,2.9-2.6,2.1-4.3l-2.2-3.4c-.6-1.4-2.3-2.2-4-2l-16.7,5c-.1,0-.3,0-.4,0l-18.3-3c-1.1-.1-1.9.8-1.5,1.7Z"/>
  </g>
</svg>