<?xml version="1.0" encoding="UTF-8"?>
<svg id="Capa_1" xmlns="http://www.w3.org/2000/svg" version="1.1" viewBox="0 0 1080 1080">
  <!-- Generator: Adobe Illustrator 30.1.0, SVG Export Plug-In . SVG Version: 2.1.1 Build 136)  -->
  <defs>
    <style>
      .st0 {
        fill: #d900d9;
      }

      .st1 {
        fill: #1fbfba;
      }
    </style>
  </defs>
  <g>
    <path class="st1" d="M113.5,488.8c8.3,0,16.5,1.6,24.6,4.7,8.1,3.1,14.2,7.7,18.5,13.6l13.7-62.2h30l-40,187.1h-28.8l2.8-17.8c-5.4,6.3-11.4,11.3-17.9,15.1-6.5,3.8-14,5.7-22.3,5.7-11.9,0-22.1-2.6-30.6-7.7-8.5-5.2-15-12.1-19.5-20.9-4.5-8.8-6.7-18.6-6.7-29.5s1.7-24.1,5.2-34.8c3.5-10.7,8.5-20,15-27.9,6.5-8,14.5-14.2,23.9-18.7,9.4-4.5,20.1-6.7,32-6.7ZM99.7,609.9c8.5,0,16.2-2.5,23-7.5,6.9-5,12.9-11.6,17.9-19.7l9.2-42.9c-1.9-7.8-5.9-14-12.2-18.8-6.3-4.7-13.7-7.1-22.1-7.1s-17.3,2.6-24.4,7.9c-7.1,5.2-12.7,12.4-16.7,21.5-4,9.1-6,19.3-6,30.8s1.3,13.3,3.8,18.7c2.5,5.3,6.2,9.5,10.8,12.6,4.7,3,10.2,4.6,16.7,4.6Z"/>
    <path class="st1" d="M246.4,635.1c-12.7,0-23.8-2.5-33.2-7.5-9.4-5-16.7-12-21.9-21.1-5.2-9.1-7.8-19.8-7.8-32.1s3.4-32.3,10.1-45.2c6.7-12.9,16-22.8,27.9-29.8,11.9-7,25.6-10.5,41.2-10.5s24,2.5,33.4,7.5c9.3,5,16.5,12,21.6,20.9,5.1,9,7.6,19.6,7.6,32s-3.3,32.3-9.9,45.2c-6.6,12.9-15.9,22.8-27.8,30-11.9,7.1-25.6,10.7-41.2,10.7ZM247.4,610.2c9.5,0,17.7-2.5,24.7-7.4,7-4.9,12.4-11.8,16.3-20.8,3.9-9,5.9-19.4,5.9-31.2s-3-20.3-8.9-27c-5.9-6.7-13.7-10-23.4-10s-17.8,2.5-24.8,7.4c-7,4.9-12.6,11.8-16.5,20.7-4,8.9-6,19.3-6,31.4s1.4,13.7,4.1,19.2c2.7,5.5,6.6,9.9,11.6,13.1,5,3.2,10.7,4.8,17.2,4.8Z"/>
    <path class="st1" d="M418.2,562.7l32.1,69.3h-31.6l-10.2-21.3-13-28.4-23.7,28.2-19.9,21.6h-34.1l63.1-73.1-31.6-67h31.6l9.7,19,13,28.7,23.9-28.2,18.1-19.5h34.1l-61.6,70.8Z"/>
    <path class="st1" d="M563.4,562.7l32.1,69.3h-31.6l-10.2-21.3-13-28.4-23.7,28.2-19.9,21.6h-34.1l63.1-73.1-31.6-67h31.6l9.7,19,13,28.7,23.9-28.2,18.1-19.5h34.1l-61.6,70.8Z"/>
    <path class="st1" d="M611.2,632l29.8-140.1h29l-4.8,29.7-23.7,110.4h-30.3ZM709.2,632l18.6-87.3c2-9.1,1.1-16.5-2.7-22-3.8-5.5-9.8-8.3-17.9-8.3s-18.3,3.3-27,9.9c-8.7,6.6-17.1,17-25.5,31.2l1.8-30c8.1-12.4,17.1-21.6,27-27.7,9.8-6.1,20.7-9.1,32.6-9.1s18.8,2.2,26,6.7c7.1,4.5,12.3,10.8,15.4,18.9,3.1,8.1,3.5,17.6,1.1,28.4l-19.1,89.1h-30.3Z"/>
    <path class="st1" d="M828.1,635.1c-12.6,0-23.6-2.5-33.2-7.5-9.6-5-17.1-12.1-22.5-21.2-5.4-9.1-8.1-19.9-8.1-32.2s1.8-23.2,5.5-33.5c3.6-10.3,8.9-19.4,15.7-27.2,6.8-7.8,15.1-13.8,25-18.2,9.8-4.3,21-6.5,33.6-6.5s26.5,3,36.3,9c9.8,6,16.6,14.5,20.6,25.4,4,10.9,4.6,23.8,1.9,38.7h-113.8l4.8-21.8h79.7c.2-8.1-2.4-14.6-7.6-19.5-5.3-4.9-13-7.4-23.2-7.4s-20.5,2.9-27.5,8.6c-7,5.8-12,13.2-15.1,22.2-3.1,9.1-4.7,18.6-4.7,28.6s1.4,14.2,4.2,19.8c2.8,5.6,6.8,9.9,12.1,13.1,5.3,3.1,11.4,4.7,18.3,4.7,11.4,0,20.4-2.5,27-7.4,6.6-4.9,11-11.2,13.2-18.8h30.6c-3.1,10.3-7.7,19.3-13.9,27-6.2,7.7-14.1,13.6-23.8,17.8-9.7,4.1-21.3,6.2-34.9,6.2Z"/>
    <path class="st1" d="M926.9,516.5l5.3-24.6h102.3l-5.1,24.6h-102.6ZM977.6,632c-9.2,0-16.6-1.9-22.4-5.6-5.8-3.7-9.7-9-11.7-15.9-2-6.9-2.1-14.9-.3-24l25.7-120.1,33.9-15.2-29,135.3c-.9,4.2-1.1,8-.6,11.2.4,3.2,1.9,5.6,4.6,7.2,2.6,1.6,6.7,2.4,12.1,2.4h43.5l-5.3,24.6h-50.4Z"/>
  </g>
  <g>
    <path class="st0" d="M121.5,488.8c8.3,0,16.5,1.6,24.6,4.7,8.1,3.1,14.2,7.7,18.5,13.6l13.7-62.2h30l-40,187.1h-28.8l2.8-17.8c-5.4,6.3-11.4,11.3-17.9,15.1-6.5,3.8-14,5.7-22.3,5.7-11.9,0-22.1-2.6-30.6-7.7-8.5-5.2-15-12.1-19.5-20.9-4.5-8.8-6.7-18.6-6.7-29.5s1.7-24.1,5.2-34.8c3.5-10.7,8.5-20,15-27.9,6.5-8,14.5-14.2,23.9-18.7,9.4-4.5,20.1-6.7,32-6.7ZM107.8,609.9c8.5,0,16.2-2.5,23-7.5,6.9-5,12.9-11.6,17.9-19.7l9.2-42.9c-1.9-7.8-5.9-14-12.2-18.8-6.3-4.7-13.7-7.1-22.1-7.1s-17.3,2.6-24.4,7.9c-7.1,5.2-12.7,12.4-16.7,21.5-4,9.1-6,19.3-6,30.8s1.3,13.3,3.8,18.7c2.5,5.3,6.2,9.5,10.8,12.6,4.7,3,10.2,4.6,16.7,4.6Z"/>
    <path class="st0" d="M254.4,635.1c-12.7,0-23.8-2.5-33.2-7.5-9.4-5-16.7-12-21.9-21.1-5.2-9.1-7.8-19.8-7.8-32.1s3.4-32.3,10.1-45.2c6.7-12.9,16-22.8,27.9-29.8,11.9-7,25.6-10.5,41.2-10.5s24,2.5,33.4,7.5c9.3,5,16.5,12,21.6,20.9,5.1,9,7.6,19.6,7.6,32s-3.3,32.3-9.9,45.2c-6.6,12.9-15.9,22.8-27.8,30-11.9,7.1-25.6,10.7-41.2,10.7ZM255.4,610.2c9.5,0,17.7-2.5,24.7-7.4,7-4.9,12.4-11.8,16.3-20.8,3.9-9,5.9-19.4,5.9-31.2s-3-20.3-8.9-27c-5.9-6.7-13.7-10-23.4-10s-17.8,2.5-24.8,7.4c-7,4.9-12.6,11.8-16.5,20.7-4,8.9-6,19.3-6,31.4s1.4,13.7,4.1,19.2c2.7,5.5,6.6,9.9,11.6,13.1,5,3.2,10.7,4.8,17.2,4.8Z"/>
    <path class="st0" d="M426.3,562.7l32.1,69.3h-31.6l-10.2-21.3-13-28.4-23.7,28.2-19.9,21.6h-34.1l63.1-73.1-31.6-67h31.6l9.7,19,13,28.7,23.9-28.2,18.1-19.5h34.1l-61.6,70.8Z"/>
    <path class="st0" d="M571.4,562.7l32.1,69.3h-31.6l-10.2-21.3-13-28.4-23.7,28.2-19.9,21.6h-34.1l63.1-73.1-31.6-67h31.6l9.7,19,13,28.7,23.9-28.2,18.1-19.5h34.1l-61.6,70.8Z"/>
    <path class="st0" d="M619.2,632l29.8-140.1h29l-4.8,29.7-23.7,110.4h-30.3ZM717.3,632l18.6-87.3c2-9.1,1.1-16.5-2.7-22-3.8-5.5-9.8-8.3-17.9-8.3s-18.3,3.3-27,9.9c-8.7,6.6-17.1,17-25.5,31.2l1.8-30c8.1-12.4,17.1-21.6,27-27.7,9.8-6.1,20.7-9.1,32.6-9.1s18.8,2.2,26,6.7c7.1,4.5,12.3,10.8,15.4,18.9,3.1,8.1,3.5,17.6,1.1,28.4l-19.1,89.1h-30.3Z"/>
    <path class="st0" d="M836.2,635.1c-12.6,0-23.6-2.5-33.2-7.5-9.6-5-17.1-12.1-22.5-21.2-5.4-9.1-8.1-19.9-8.1-32.2s1.8-23.2,5.5-33.5c3.6-10.3,8.9-19.4,15.7-27.2,6.8-7.8,15.1-13.8,25-18.2,9.8-4.3,21-6.5,33.6-6.5s26.5,3,36.3,9c9.8,6,16.6,14.5,20.6,25.4,4,10.9,4.6,23.8,1.9,38.7h-113.8l4.8-21.8h79.7c.2-8.1-2.4-14.6-7.6-19.5-5.3-4.9-13-7.4-23.2-7.4s-20.5,2.9-27.5,8.6c-7,5.8-12,13.2-15.1,22.2-3.1,9.1-4.7,18.6-4.7,28.6s1.4,14.2,4.2,19.8c2.8,5.6,6.8,9.9,12.1,13.1,5.3,3.1,11.4,4.7,18.3,4.7,11.4,0,20.4-2.5,27-7.4,6.6-4.9,11-11.2,13.2-18.8h30.6c-3.1,10.3-7.7,19.3-13.9,27-6.2,7.7-14.1,13.6-23.8,17.8-9.7,4.1-21.3,6.2-34.9,6.2Z"/>
    <path class="st0" d="M934.9,516.5l5.3-24.6h102.3l-5.1,24.6h-102.6ZM985.6,632c-9.2,0-16.6-1.9-22.4-5.6-5.8-3.7-9.7-9-11.7-15.9-2-6.9-2.1-14.9-.3-24l25.7-120.1,33.9-15.2-29,135.3c-.9,4.2-1.1,8-.6,11.2.4,3.2,1.9,5.6,4.6,7.2,2.6,1.6,6.7,2.4,12.1,2.4h43.5l-5.3,24.6h-50.4Z"/>
  </g>
  <g>
    <path d="M117.5,488.8c8.3,0,16.5,1.6,24.6,4.7,8.1,3.1,14.2,7.7,18.5,13.6l13.7-62.2h30l-40,187.1h-28.8l2.8-17.8c-5.4,6.3-11.4,11.3-17.9,15.1-6.5,3.8-14,5.7-22.3,5.7-11.9,0-22.1-2.6-30.6-7.7-8.5-5.2-15-12.1-19.5-20.9-4.5-8.8-6.7-18.6-6.7-29.5s1.7-24.1,5.2-34.8c3.5-10.7,8.5-20,15-27.9,6.5-8,14.5-14.2,23.9-18.7,9.4-4.5,20.1-6.7,32-6.7ZM103.8,609.9c8.5,0,16.2-2.5,23-7.5,6.9-5,12.9-11.6,17.9-19.7l9.2-42.9c-1.9-7.8-5.9-14-12.2-18.8-6.3-4.7-13.7-7.1-22.1-7.1s-17.3,2.6-24.4,7.9c-7.1,5.2-12.7,12.4-16.7,21.5-4,9.1-6,19.3-6,30.8s1.3,13.3,3.8,18.7c2.5,5.3,6.2,9.5,10.8,12.6,4.7,3,10.2,4.6,16.7,4.6Z"/>
    <path d="M250.4,635.1c-12.7,0-23.8-2.5-33.2-7.5-9.4-5-16.7-12-21.9-21.1-5.2-9.1-7.8-19.8-7.8-32.1s3.4-32.3,10.1-45.2c6.7-12.9,16-22.8,27.9-29.8,11.9-7,25.6-10.5,41.2-10.5s24,2.5,33.4,7.5c9.3,5,16.5,12,21.6,20.9,5.1,9,7.6,19.6,7.6,32s-3.3,32.3-9.9,45.2c-6.6,12.9-15.9,22.8-27.8,30-11.9,7.1-25.6,10.7-41.2,10.7ZM251.5,610.2c9.5,0,17.7-2.5,24.7-7.4,7-4.9,12.4-11.8,16.3-20.8,3.9-9,5.9-19.4,5.9-31.2s-3-20.3-8.9-27c-5.9-6.7-13.7-10-23.4-10s-17.8,2.5-24.8,7.4c-7,4.9-12.6,11.8-16.5,20.7-4,8.9-6,19.3-6,31.4s1.4,13.7,4.1,19.2c2.7,5.5,6.6,9.9,11.6,13.1,5,3.2,10.7,4.8,17.2,4.8Z"/>
    <path d="M422.3,562.7l32.1,69.3h-31.6l-10.2-21.3-13-28.4-23.7,28.2-19.9,21.6h-34.1l63.1-73.1-31.6-67h31.6l9.7,19,13,28.7,23.9-28.2,18.1-19.5h34.1l-61.6,70.8Z"/>
    <path d="M567.4,562.7l32.1,69.3h-31.6l-10.2-21.3-13-28.4-23.7,28.2-19.9,21.6h-34.1l63.1-73.1-31.6-67h31.6l9.7,19,13,28.7,23.9-28.2,18.1-19.5h34.1l-61.6,70.8Z"/>
    <path d="M615.3,632l29.8-140.1h29l-4.8,29.7-23.7,110.4h-30.3ZM713.3,632l18.6-87.3c2-9.1,1.1-16.5-2.7-22-3.8-5.5-9.8-8.3-17.9-8.3s-18.3,3.3-27,9.9c-8.7,6.6-17.1,17-25.5,31.2l1.8-30c8.1-12.4,17.1-21.6,27-27.7,9.8-6.1,20.7-9.1,32.6-9.1s18.8,2.2,26,6.7c7.1,4.5,12.3,10.8,15.4,18.9,3.1,8.1,3.5,17.6,1.1,28.4l-19.1,89.1h-30.3Z"/>
    <path d="M832.2,635.1c-12.6,0-23.6-2.5-33.2-7.5-9.6-5-17.1-12.1-22.5-21.2-5.4-9.1-8.1-19.9-8.1-32.2s1.8-23.2,5.5-33.5c3.6-10.3,8.9-19.4,15.7-27.2,6.8-7.8,15.1-13.8,25-18.2,9.8-4.3,21-6.5,33.6-6.5s26.5,3,36.3,9c9.8,6,16.6,14.5,20.6,25.4,4,10.9,4.6,23.8,1.9,38.7h-113.8l4.8-21.8h79.7c.2-8.1-2.4-14.6-7.6-19.5-5.3-4.9-13-7.4-23.2-7.4s-20.5,2.9-27.5,8.6c-7,5.8-12,13.2-15.1,22.2-3.1,9.1-4.7,18.6-4.7,28.6s1.4,14.2,4.2,19.8c2.8,5.6,6.8,9.9,12.1,13.1,5.3,3.1,11.4,4.7,18.3,4.7,11.4,0,20.4-2.5,27-7.4,6.6-4.9,11-11.2,13.2-18.8h30.6c-3.1,10.3-7.7,19.3-13.9,27-6.2,7.7-14.1,13.6-23.8,17.8-9.7,4.1-21.3,6.2-34.9,6.2Z"/>
    <path d="M931,516.5l5.3-24.6h102.3l-5.1,24.6h-102.6ZM981.6,632c-9.2,0-16.6-1.9-22.4-5.6-5.8-3.7-9.7-9-11.7-15.9-2-6.9-2.1-14.9-.3-24l25.7-120.1,33.9-15.2-29,135.3c-.9,4.2-1.1,8-.6,11.2.4,3.2,1.9,5.6,4.6,7.2,2.6,1.6,6.7,2.4,12.1,2.4h43.5l-5.3,24.6h-50.4Z"/>
  </g>
</svg>