<?xml version="1.0" encoding="UTF-8"?>
<svg id="Layer_1" xmlns="http://www.w3.org/2000/svg" xmlns:xlink="http://www.w3.org/1999/xlink" version="1.1" viewBox="0 0 1500 500">
  <!-- Generator: Adobe Illustrator 30.1.0, SVG Export Plug-In . SVG Version: 2.1.1 Build 136)  -->
  <defs>
    <style>
      .st0 {
        fill: none;
      }

      .st1 {
        clip-path: url(#clippath-1);
      }

      .st2 {
        clip-path: url(#clippath-3);
      }

      .st3 {
        clip-path: url(#clippath-2);
      }

      .st4 {
        fill: #d900d9;
      }

      .st5 {
        fill: #1fbfba;
      }

      .st6 {
        clip-path: url(#clippath);
      }

      .st7 {
        fill: #ececec;
      }
    </style>
    <clipPath id="clippath">
      <rect class="st0" width="752.6" height="499"/>
    </clipPath>
    <clipPath id="clippath-1">
      <rect class="st0" x="-5" y="-5" width="762.6" height="509"/>
    </clipPath>
    <clipPath id="clippath-2">
      <rect class="st0" x="747.4" y="0" width="752.6" height="499"/>
    </clipPath>
    <clipPath id="clippath-3">
      <rect class="st0" x="742.4" y="-5" width="762.6" height="509"/>
    </clipPath>
  </defs>
  <g class="st6">
    <g class="st1">
      <image width="1590" height="1062" transform="translate(-5.3 -5.3) scale(.5)" xlink:href="X_BANNER_Gradient-1.png"/>
    </g>
  </g>
  <g class="st3">
    <g class="st2">
      <image width="1590" height="1062" transform="translate(742.1 -5.3) scale(.5)" xlink:href="X_BANNER_Gradient-2.png"/>
    </g>
  </g>
  <g>
    <path class="st5" d="M512.8,210.3c4.7,0,9.3.9,13.8,2.6,4.5,1.8,8,4.3,10.4,7.6l7.7-35h16.9l-22.5,105.3h-16.2l1.6-10c-3.1,3.5-6.4,6.4-10.1,8.5-3.7,2.1-7.9,3.2-12.5,3.2-6.7,0-12.4-1.5-17.2-4.4-4.8-2.9-8.4-6.8-11-11.8-2.5-4.9-3.8-10.5-3.8-16.6s1-13.6,2.9-19.6c2-6,4.8-11.2,8.5-15.7,3.7-4.5,8.2-8,13.5-10.5,5.3-2.5,11.3-3.8,18-3.8ZM505.1,278.5c4.8,0,9.1-1.4,13-4.2,3.9-2.8,7.2-6.5,10.1-11.1l5.2-24.1c-1.1-4.4-3.3-7.9-6.9-10.6-3.5-2.7-7.7-4-12.5-4s-9.7,1.5-13.7,4.4c-4,3-7.1,7-9.4,12.1-2.2,5.1-3.4,10.9-3.4,17.4s.7,7.5,2.1,10.5c1.4,3,3.5,5.4,6.1,7.1,2.6,1.7,5.8,2.6,9.4,2.6Z"/>
    <path class="st5" d="M596.7,292.6c-7.2,0-13.4-1.4-18.7-4.2-5.3-2.8-9.4-6.8-12.3-11.9-2.9-5.1-4.4-11.1-4.4-18.1s1.9-18.2,5.7-25.4c3.8-7.2,9-12.8,15.7-16.8,6.7-3.9,14.4-5.9,23.2-5.9s13.5,1.4,18.8,4.2c5.3,2.8,9.3,6.7,12.2,11.8,2.9,5,4.3,11,4.3,18s-1.9,18.2-5.6,25.4c-3.7,7.2-8.9,12.9-15.6,16.9-6.7,4-14.4,6-23.2,6ZM597.3,278.6c5.3,0,10-1.4,13.9-4.1,3.9-2.8,7-6.7,9.2-11.7,2.2-5,3.3-10.9,3.3-17.6s-1.7-11.4-5-15.2c-3.3-3.8-7.7-5.6-13.2-5.6s-10,1.4-14,4.1c-4,2.8-7.1,6.6-9.3,11.6-2.2,5-3.4,10.9-3.4,17.6s.8,7.7,2.3,10.8c1.5,3.1,3.7,5.5,6.5,7.4,2.8,1.8,6,2.7,9.7,2.7Z"/>
    <path class="st5" d="M693.4,251.9l18,39h-17.8l-5.7-12-7.3-16-13.3,15.9-11.2,12.1h-19.2l35.5-41.1-17.8-37.7h17.8l5.4,10.7,7.3,16.1,13.5-15.9,10.2-11h19.2l-34.7,39.8Z"/>
    <path class="st5" d="M775,251.9l18,39h-17.8l-5.7-12-7.3-16-13.3,15.9-11.2,12.1h-19.2l35.5-41.1-17.8-37.7h17.8l5.4,10.7,7.3,16.1,13.5-15.9,10.2-11h19.2l-34.7,39.8Z"/>
    <path class="st5" d="M803.5,290.9l16.8-78.8h16.3l-2.7,16.7-13.3,62.1h-17ZM858.6,290.9l10.5-49.1c1.1-5.1.6-9.3-1.5-12.4-2.1-3.1-5.5-4.6-10.1-4.6s-10.3,1.9-15.2,5.6c-4.9,3.7-9.6,9.6-14.3,17.6l1-16.9c4.6-6.9,9.6-12.1,15.2-15.6,5.5-3.4,11.6-5.1,18.3-5.1s10.6,1.3,14.6,3.8c4,2.5,6.9,6.1,8.7,10.6,1.8,4.6,2,9.9.6,16l-10.7,50.1h-17Z"/>
    <path class="st5" d="M931.6,292.6c-7.1,0-13.3-1.4-18.7-4.2-5.4-2.8-9.6-6.8-12.7-11.9-3.1-5.1-4.6-11.2-4.6-18.1s1-13,3.1-18.9c2.1-5.8,5-10.9,8.8-15.3,3.8-4.4,8.5-7.8,14-10.2,5.5-2.4,11.8-3.6,18.9-3.6s14.9,1.7,20.4,5.1c5.5,3.4,9.4,8.1,11.6,14.3,2.2,6.1,2.6,13.4,1.1,21.8h-64l2.7-12.3h44.8c0-4.6-1.3-8.2-4.3-11-3-2.8-7.3-4.1-13-4.1s-11.6,1.6-15.5,4.9c-3.9,3.2-6.8,7.4-8.5,12.5-1.8,5.1-2.6,10.5-2.6,16.1s.8,8,2.4,11.1c1.6,3.1,3.8,5.6,6.8,7.4,3,1.8,6.4,2.6,10.3,2.6,6.4,0,11.5-1.4,15.2-4.1,3.7-2.8,6.2-6.3,7.4-10.6h17.2c-1.7,5.8-4.3,10.9-7.8,15.2-3.5,4.3-7.9,7.7-13.4,10-5.4,2.3-12,3.5-19.6,3.5Z"/>
    <path class="st5" d="M985.6,225.9l3-13.9h57.6l-2.9,13.9h-57.7ZM1014.1,290.9c-5.2,0-9.4-1-12.6-3.1-3.2-2.1-5.4-5.1-6.6-8.9-1.1-3.9-1.2-8.4-.1-13.5l14.5-67.6,19-8.6-16.3,76.1c-.5,2.4-.6,4.5-.4,6.3.2,1.8,1.1,3.2,2.6,4.1,1.5.9,3.7,1.4,6.8,1.4h17.2l-3,13.9h-21.1Z"/>
    <path class="st4" d="M520.4,210.3c4.7,0,9.3.9,13.8,2.6,4.5,1.8,8,4.3,10.4,7.6l7.7-35h16.9l-22.5,105.3h-16.2l1.6-10c-3.1,3.5-6.4,6.4-10.1,8.5-3.7,2.1-7.9,3.2-12.5,3.2-6.7,0-12.4-1.5-17.2-4.4-4.8-2.9-8.4-6.8-11-11.8-2.5-4.9-3.8-10.5-3.8-16.6s1-13.6,2.9-19.6c2-6,4.8-11.2,8.5-15.7,3.7-4.5,8.2-8,13.5-10.5,5.3-2.5,11.3-3.8,18-3.8ZM512.7,278.5c4.8,0,9.1-1.4,13-4.2,3.9-2.8,7.2-6.5,10.1-11.1l5.2-24.1c-1.1-4.4-3.3-7.9-6.9-10.6-3.5-2.7-7.7-4-12.5-4s-9.7,1.5-13.7,4.4c-4,3-7.1,7-9.4,12.1-2.2,5.1-3.4,10.9-3.4,17.4s.7,7.5,2.1,10.5c1.4,3,3.5,5.4,6.1,7.1,2.6,1.7,5.8,2.6,9.4,2.6Z"/>
    <path class="st4" d="M604.3,292.6c-7.2,0-13.4-1.4-18.7-4.2-5.3-2.8-9.4-6.8-12.3-11.9-2.9-5.1-4.4-11.1-4.4-18.1s1.9-18.2,5.7-25.4c3.8-7.2,9-12.8,15.7-16.8,6.7-3.9,14.4-5.9,23.2-5.9s13.5,1.4,18.8,4.2c5.3,2.8,9.3,6.7,12.2,11.8,2.9,5,4.3,11,4.3,18s-1.9,18.2-5.6,25.4c-3.7,7.2-8.9,12.9-15.6,16.9-6.7,4-14.4,6-23.2,6ZM604.8,278.6c5.3,0,10-1.4,13.9-4.1,3.9-2.8,7-6.7,9.2-11.7,2.2-5,3.3-10.9,3.3-17.6s-1.7-11.4-5-15.2c-3.3-3.8-7.7-5.6-13.2-5.6s-10,1.4-14,4.1c-4,2.8-7.1,6.6-9.3,11.6-2.2,5-3.4,10.9-3.4,17.6s.8,7.7,2.3,10.8c1.5,3.1,3.7,5.5,6.5,7.4,2.8,1.8,6,2.7,9.7,2.7Z"/>
    <path class="st4" d="M700.9,251.9l18,39h-17.8l-5.7-12-7.3-16-13.3,15.9-11.2,12.1h-19.2l35.5-41.1-17.8-37.7h17.8l5.4,10.7,7.3,16.1,13.5-15.9,10.2-11h19.2l-34.7,39.8Z"/>
    <path class="st4" d="M782.6,251.9l18,39h-17.8l-5.7-12-7.3-16-13.3,15.9-11.2,12.1h-19.2l35.5-41.1-17.8-37.7h17.8l5.4,10.7,7.3,16.1,13.5-15.9,10.2-11h19.2l-34.7,39.8Z"/>
    <path class="st4" d="M811,290.9l16.8-78.8h16.3l-2.7,16.7-13.3,62.1h-17ZM866.2,290.9l10.5-49.1c1.1-5.1.6-9.3-1.5-12.4-2.1-3.1-5.5-4.6-10.1-4.6s-10.3,1.9-15.2,5.6c-4.9,3.7-9.6,9.6-14.3,17.6l1-16.9c4.6-6.9,9.6-12.1,15.2-15.6,5.5-3.4,11.6-5.1,18.3-5.1s10.6,1.3,14.6,3.8c4,2.5,6.9,6.1,8.7,10.6,1.8,4.6,2,9.9.6,16l-10.7,50.1h-17Z"/>
    <path class="st4" d="M939.1,292.6c-7.1,0-13.3-1.4-18.7-4.2-5.4-2.8-9.6-6.8-12.7-11.9-3.1-5.1-4.6-11.2-4.6-18.1s1-13,3.1-18.9c2.1-5.8,5-10.9,8.8-15.3,3.8-4.4,8.5-7.8,14-10.2,5.5-2.4,11.8-3.6,18.9-3.6s14.9,1.7,20.4,5.1c5.5,3.4,9.4,8.1,11.6,14.3,2.2,6.1,2.6,13.4,1.1,21.8h-64l2.7-12.3h44.8c0-4.6-1.3-8.2-4.3-11-3-2.8-7.3-4.1-13-4.1s-11.6,1.6-15.5,4.9c-3.9,3.2-6.8,7.4-8.5,12.5-1.8,5.1-2.6,10.5-2.6,16.1s.8,8,2.4,11.1c1.6,3.1,3.8,5.6,6.8,7.4,3,1.8,6.4,2.6,10.3,2.6,6.4,0,11.5-1.4,15.2-4.1,3.7-2.8,6.2-6.3,7.4-10.6h17.2c-1.7,5.8-4.3,10.9-7.8,15.2-3.5,4.3-7.9,7.7-13.4,10-5.4,2.3-12,3.5-19.6,3.5Z"/>
    <path class="st4" d="M993.2,225.9l3-13.9h57.6l-2.9,13.9h-57.7ZM1021.7,290.9c-5.2,0-9.4-1-12.6-3.1-3.2-2.1-5.4-5.1-6.6-8.9-1.1-3.9-1.2-8.4-.1-13.5l14.5-67.6,19-8.6-16.3,76.1c-.5,2.4-.6,4.5-.4,6.3.2,1.8,1.1,3.2,2.6,4.1,1.5.9,3.7,1.4,6.8,1.4h17.2l-3,13.9h-21.1Z"/>
    <path class="st7" d="M516.6,210.3c4.7,0,9.3.9,13.8,2.6,4.5,1.8,8,4.3,10.4,7.6l7.7-35h16.9l-22.5,105.3h-16.2l1.6-10c-3.1,3.5-6.4,6.4-10.1,8.5-3.7,2.1-7.9,3.2-12.5,3.2-6.7,0-12.4-1.5-17.2-4.4-4.8-2.9-8.4-6.8-11-11.8-2.5-4.9-3.8-10.5-3.8-16.6s1-13.6,2.9-19.6c2-6,4.8-11.2,8.5-15.7,3.7-4.5,8.2-8,13.5-10.5,5.3-2.5,11.3-3.8,18-3.8ZM508.9,278.5c4.8,0,9.1-1.4,13-4.2,3.9-2.8,7.2-6.5,10.1-11.1l5.2-24.1c-1.1-4.4-3.3-7.9-6.9-10.6-3.5-2.7-7.7-4-12.5-4s-9.7,1.5-13.7,4.4c-4,3-7.1,7-9.4,12.1-2.2,5.1-3.4,10.9-3.4,17.4s.7,7.5,2.1,10.5c1.4,3,3.5,5.4,6.1,7.1,2.6,1.7,5.8,2.6,9.4,2.6Z"/>
    <path class="st7" d="M600.5,292.6c-7.2,0-13.4-1.4-18.7-4.2-5.3-2.8-9.4-6.8-12.3-11.9-2.9-5.1-4.4-11.1-4.4-18.1s1.9-18.2,5.7-25.4c3.8-7.2,9-12.8,15.7-16.8,6.7-3.9,14.4-5.9,23.2-5.9s13.5,1.4,18.8,4.2c5.3,2.8,9.3,6.7,12.2,11.8,2.9,5,4.3,11,4.3,18s-1.9,18.2-5.6,25.4c-3.7,7.2-8.9,12.9-15.6,16.9-6.7,4-14.4,6-23.2,6ZM601.1,278.6c5.3,0,10-1.4,13.9-4.1,3.9-2.8,7-6.7,9.2-11.7,2.2-5,3.3-10.9,3.3-17.6s-1.7-11.4-5-15.2c-3.3-3.8-7.7-5.6-13.2-5.6s-10,1.4-14,4.1c-4,2.8-7.1,6.6-9.3,11.6-2.2,5-3.4,10.9-3.4,17.6s.8,7.7,2.3,10.8c1.5,3.1,3.7,5.5,6.5,7.4,2.8,1.8,6,2.7,9.7,2.7Z"/>
    <path class="st7" d="M697.2,251.9l18,39h-17.8l-5.7-12-7.3-16-13.3,15.9-11.2,12.1h-19.2l35.5-41.1-17.8-37.7h17.8l5.4,10.7,7.3,16.1,13.5-15.9,10.2-11h19.2l-34.7,39.8Z"/>
    <path class="st7" d="M778.8,251.9l18,39h-17.8l-5.7-12-7.3-16-13.3,15.9-11.2,12.1h-19.2l35.5-41.1-17.8-37.7h17.8l5.4,10.7,7.3,16.1,13.5-15.9,10.2-11h19.2l-34.7,39.8Z"/>
    <path class="st7" d="M807.3,290.9l16.8-78.8h16.3l-2.7,16.7-13.3,62.1h-17ZM862.4,290.9l10.5-49.1c1.1-5.1.6-9.3-1.5-12.4-2.1-3.1-5.5-4.6-10.1-4.6s-10.3,1.9-15.2,5.6c-4.9,3.7-9.6,9.6-14.3,17.6l1-16.9c4.6-6.9,9.6-12.1,15.2-15.6,5.5-3.4,11.6-5.1,18.3-5.1s10.6,1.3,14.6,3.8c4,2.5,6.9,6.1,8.7,10.6,1.8,4.6,2,9.9.6,16l-10.7,50.1h-17Z"/>
    <path class="st7" d="M935.4,292.6c-7.1,0-13.3-1.4-18.7-4.2-5.4-2.8-9.6-6.8-12.7-11.9-3.1-5.1-4.6-11.2-4.6-18.1s1-13,3.1-18.9c2.1-5.8,5-10.9,8.8-15.3,3.8-4.4,8.5-7.8,14-10.2,5.5-2.4,11.8-3.6,18.9-3.6s14.9,1.7,20.4,5.1c5.5,3.4,9.4,8.1,11.6,14.3,2.2,6.1,2.6,13.4,1.1,21.8h-64l2.7-12.3h44.8c0-4.6-1.3-8.2-4.3-11-3-2.8-7.3-4.1-13-4.1s-11.6,1.6-15.5,4.9c-3.9,3.2-6.8,7.4-8.5,12.5-1.8,5.1-2.6,10.5-2.6,16.1s.8,8,2.4,11.1c1.6,3.1,3.8,5.6,6.8,7.4,3,1.8,6.4,2.6,10.3,2.6,6.4,0,11.5-1.4,15.2-4.1,3.7-2.8,6.2-6.3,7.4-10.6h17.2c-1.7,5.8-4.3,10.9-7.8,15.2-3.5,4.3-7.9,7.7-13.4,10-5.4,2.3-12,3.5-19.6,3.5Z"/>
    <path class="st7" d="M989.4,225.9l3-13.9h57.6l-2.9,13.9h-57.7ZM1017.9,290.9c-5.2,0-9.4-1-12.6-3.1-3.2-2.1-5.4-5.1-6.6-8.9-1.1-3.9-1.2-8.4-.1-13.5l14.5-67.6,19-8.6-16.3,76.1c-.5,2.4-.6,4.5-.4,6.3.2,1.8,1.1,3.2,2.6,4.1,1.5.9,3.7,1.4,6.8,1.4h17.2l-3,13.9h-21.1Z"/>
  </g>
</svg>